<svg width="24" height="24" viewBox="0 0 24 24" fill="none" xmlns="http://www.w3.org/2000/svg">
  <path d="M12 0C5.373 0 0 5.373 0 12s5.373 12 12 12 12-5.373 12-12S18.627 0 12 0zM2.4 12c0-.79.095-1.555.271-2.285L6.09 20.84A9.557 9.557 0 0 1 2.4 12zm9.6 9.6c-.944 0-1.848-.145-2.7-.41l2.868-8.33 2.94 8.054c.02.048.043.093.066.137-.699.332-1.47.549-2.174.549zm1.324-14.16c.578-.03 1.099-.092 1.099-.092.517-.06.456-.82-.06-.79 0 0-1.554.122-2.557.122-.942 0-2.527-.122-2.527-.122-.516-.03-.577.76-.06.79 0 0 .491.062 1.008.092l1.498 4.105-2.105 6.313L6.66 7.84c.578-.03 1.099-.092 1.099-.092.517-.06.456-.82-.06-.79 0 0-1.554.122-2.557.122-.18 0-.392-.004-.617-.01A9.567 9.567 0 0 1 12 2.4c3.15 0 6.014 1.205 8.16 3.171-.052-.004-.103-.01-.157-.01-.942 0-1.61.82-1.61 1.7 0 .79.456 1.458.942 2.248.365.638.79 1.458.79 2.643 0 .82-.315 1.774-.73 3.102l-.955 3.186-3.456-10.28zm4.266-1.5c.062.456.097.946.097 1.473 0 1.458-.273 3.102-1.095 5.152l-4.401 12.72A9.567 9.567 0 0 0 21.6 12c0-3.729-2.13-6.965-5.24-8.568z" fill="currentColor"/>
</svg>