<svg width="20" height="20" viewBox="0 0 67 95" fill="none" xmlns="http://www.w3.org/2000/svg">
<path d="M8.88105 61.014H10.449V51.214H8.62905L5.40905 55.806L2.17505 51.214H0.355047V61.014H1.92305V53.496L5.21305 58.13H5.54905L8.88105 53.496V61.014ZM15.6254 53.958C14.5614 53.958 13.7074 54.308 13.0494 54.98C12.3914 55.666 12.0694 56.52 12.0694 57.556C12.0694 58.592 12.3914 59.46 13.0494 60.132C13.6934 60.804 14.5614 61.14 15.6254 61.14C16.6894 61.14 17.5574 60.804 18.2154 60.132C18.8734 59.46 19.2094 58.592 19.2094 57.556C19.2094 56.534 18.8734 55.68 18.2014 54.994C17.5294 54.308 16.6754 53.958 15.6254 53.958ZM15.6254 55.288C16.2414 55.288 16.7454 55.512 17.1514 55.96C17.5434 56.408 17.7534 56.94 17.7534 57.556C17.7534 58.2 17.5574 58.732 17.1654 59.152C16.7734 59.586 16.2694 59.796 15.6254 59.796C14.9814 59.796 14.4634 59.586 14.0854 59.152C13.6934 58.732 13.5114 58.2 13.5114 57.556C13.5114 56.926 13.6934 56.394 14.0854 55.946C14.4774 55.512 14.9814 55.288 15.6254 55.288ZM20.7339 54.098V61H22.1759V57.262C22.1759 56.66 22.3439 56.198 22.7079 55.862C23.0579 55.54 23.5059 55.372 24.0379 55.372C24.4999 55.372 24.9059 55.512 25.2559 55.792L25.9139 54.532C25.4659 54.14 24.9059 53.944 24.2059 53.944C23.2539 53.944 22.5679 54.308 22.1759 55.008L22.0779 54.098H20.7339ZM33.3865 58.088C33.5125 56.73 33.2605 55.694 32.6165 54.98C31.9725 54.28 31.0625 53.916 29.9145 53.916C28.8365 53.916 27.9685 54.252 27.2965 54.924C26.6245 55.596 26.2885 56.464 26.2885 57.514C26.2885 58.634 26.6245 59.516 27.2965 60.174C27.9685 60.846 28.8785 61.168 30.0125 61.168C30.5725 61.168 31.1185 61.07 31.6505 60.86C32.1825 60.664 32.6305 60.37 32.9805 59.992L32.0425 59.082C31.8325 59.306 31.5385 59.488 31.1605 59.628C30.7825 59.768 30.4045 59.824 30.0405 59.824C29.4105 59.824 28.8925 59.67 28.4865 59.348C28.0805 59.04 27.8425 58.62 27.7865 58.088H33.3865ZM27.8145 56.87C27.9265 56.338 28.1645 55.932 28.5565 55.638C28.9485 55.358 29.4105 55.204 29.9565 55.204C30.5445 55.204 31.0205 55.358 31.3845 55.638C31.7485 55.932 31.9585 56.338 32.0005 56.87H27.8145Z" fill="white"/>
<circle cx="17.5" cy="3.5" r="3.5" fill="#FFD600"/>
<circle cx="17.5" cy="14.5" r="3.5" fill="#FFD600"/>
<circle cx="17.5" cy="26.5" r="3.5" fill="#FFD600"/>
</svg>
