<svg width="301" height="38" viewBox="0 0 301 38" fill="none" xmlns="http://www.w3.org/2000/svg">
<path d="M1.8 4.204V28H6.84V4.204H1.8ZM10.4484 28H15.4884V19.972L10.4484 14.932V28ZM30.7524 4.06L21.2124 13.6L16.4964 8.884L11.6724 4.06H10.4484V9.964L15.4884 15.004L17.8284 17.344L21.2124 20.728L21.8964 20.08L22.7964 19.144L23.0844 18.856L24.1284 17.848L26.7924 15.148V28H31.8324V4.06H30.7524ZM35.5148 28H40.5548V19.972L35.5148 14.932V28ZM55.8188 4.06L46.2788 13.6L41.5628 8.884L36.7388 4.06H35.5148V9.964L40.5548 15.004L42.8948 17.344L46.2788 20.728L46.9628 20.08L47.8628 19.144L48.1508 18.856L49.1948 17.848L51.8588 15.148V28H56.8988V4.06H55.8188ZM60.5813 4.24V5.176V9.28H81.8213V4.24H60.5813ZM65.6213 17.848H79.6973V12.808H65.6213L60.5813 12.772V22.96V23.896V28H81.8213V22.96H65.6213V17.848ZM107.541 26.56L100.737 15.4C100.773 15.4 100.809 15.364 100.845 15.328L100.881 15.292C100.917 15.292 100.953 15.256 100.953 15.22C101.025 15.184 101.061 15.148 101.133 15.112C101.169 15.076 101.241 15.004 101.313 14.968C101.313 14.932 101.349 14.932 101.349 14.932C101.385 14.896 101.457 14.824 101.493 14.788C101.637 14.644 101.781 14.536 101.961 14.356C103.581 12.736 104.733 10.72 105.201 8.488C105.417 7.624 105.489 6.76 105.489 5.896C105.489 5.608 105.489 5.32 105.453 5.068L105.417 4.168H85.4367V9.208H96.2367H99.5847C99.2607 9.784 98.8647 10.324 98.3967 10.756C97.7847 11.368 97.1007 11.836 96.3087 12.196C96.2727 12.196 96.2727 12.196 96.2367 12.232C95.4087 12.556 94.5087 12.736 93.6087 12.736H85.4367V28H90.4767V17.812H93.6087C93.6807 17.812 93.7527 17.776 93.8247 17.776H93.8607H93.8967H93.9687C94.0407 17.776 94.0767 17.776 94.1487 17.776C94.1847 17.776 94.2207 17.776 94.2207 17.776C94.2927 17.776 94.3647 17.776 94.4367 17.776H94.5087L94.5447 17.74C94.6167 17.74 94.6887 17.74 94.7967 17.74C94.8687 17.74 94.9407 17.704 95.0487 17.704C95.0847 17.704 95.1207 17.704 95.1567 17.704C95.2287 17.668 95.3007 17.668 95.3727 17.668C95.4087 17.668 95.4447 17.668 95.4807 17.632C95.5167 17.632 95.5887 17.632 95.6607 17.632C95.8047 17.596 95.9487 17.56 96.0927 17.524L102.213 27.568L102.501 28H108.405L107.541 26.56ZM122.539 13.6H115.699C114.511 13.6 113.539 12.628 113.539 11.44C113.539 10.252 114.511 9.28 115.699 9.28H123.583C124.375 9.532 124.915 10.252 124.915 11.116H129.847C129.847 10.468 129.775 9.856 129.595 9.28C128.803 6.364 126.139 4.24 122.971 4.24H115.699C113.107 4.24 110.695 5.608 109.435 7.876C108.823 8.956 108.499 10.18 108.499 11.44C108.499 12.7 108.823 13.924 109.435 15.004C109.723 15.508 110.047 15.94 110.407 16.336C111.775 17.776 113.683 18.64 115.699 18.64H122.539C123.727 18.64 124.663 19.612 124.663 20.8C124.663 21.988 123.727 22.96 122.539 22.96H114.727C113.971 22.708 113.431 21.988 113.431 21.124H108.499C108.499 21.772 108.571 22.384 108.715 22.96C109.543 25.876 112.207 28 115.375 28H122.539C125.095 28 127.507 26.632 128.767 24.4C129.415 23.284 129.739 22.06 129.739 20.8C129.739 19.54 129.415 18.316 128.767 17.236C127.507 15.004 125.095 13.6 122.539 13.6ZM133.495 4.204V28H138.535V4.204H133.495ZM148.624 4.564L148.444 4.24H142.144L142.828 5.464L150.604 19.54L153.772 13.852L148.624 4.564ZM163.132 4.24L162.952 4.564L157.444 14.536L156.4 16.408L155.788 17.488L152.62 23.176L155.176 28H156.508L168.784 5.464L169.468 4.24H163.132ZM172.308 4.24V5.176V9.28H193.548V4.24H172.308ZM177.348 17.848H191.424V12.808H177.348L172.308 12.772V22.96V23.896V28H193.548V22.96H177.348V17.848Z" fill="white"/>
<path d="M222.695 31.3815C221.514 31.6031 220.498 31.6769 219.649 31.6031C218.837 31.5292 218.154 31.3631 217.6 31.1046C216.898 30.7354 216.4 30.2738 216.105 29.72C215.809 29.2031 215.606 28.6862 215.495 28.1692C215.422 27.8 215.385 27.4308 215.385 27.0615C215.422 26.6554 215.458 26.3231 215.495 26.0646V25.9538C215.68 24.7354 215.92 23.4431 216.215 22.0769C216.548 20.6738 216.898 19.3262 217.268 18.0338C216.714 17.0369 216.289 16.0769 215.994 15.1538C215.735 14.2308 215.569 13.4185 215.495 12.7169C215.348 11.9046 215.311 11.1477 215.385 10.4462C215.385 9.63385 215.532 8.89539 215.828 8.23077C216.123 7.52923 216.529 6.90154 217.046 6.34769C217.563 5.75692 218.154 5.22154 218.818 4.74154C219.52 4.26154 220.258 3.83692 221.034 3.46769C221.108 3.06154 221.145 2.65538 221.145 2.24923C221.145 1.84308 221.052 1.43692 220.868 1.03077V0.864614C220.868 0.716923 220.96 0.643077 221.145 0.643077C222.252 0.606154 223.342 0.901539 224.412 1.52923L224.634 1.64C224.708 1.71385 224.763 1.78769 224.8 1.86154C224.874 1.89846 224.948 1.95385 225.022 2.02769C226.388 1.65846 227.532 1.43692 228.455 1.36308C229.12 1.32615 229.858 1.30769 230.671 1.30769C231.52 1.30769 232.332 1.36308 233.108 1.47385C233.883 1.58462 234.566 1.76923 235.157 2.02769C235.785 2.28615 236.191 2.63692 236.375 3.08C236.745 4.00308 237.022 5.03692 237.206 6.18154C237.391 7.32615 237.391 8.30462 237.206 9.11692C237.022 9.70769 236.634 10.0954 236.043 10.28C235.489 10.4277 234.972 10.5385 234.492 10.6123C234.345 10.6492 234.197 10.6308 234.049 10.5569C233.938 10.4462 233.846 10.3354 233.772 10.2246C233.735 10.1138 233.754 10.0215 233.828 9.94769L233.938 9.83692C234.234 9.65231 234.511 9.46769 234.769 9.28308C235.065 9.06154 235.212 8.63692 235.212 8.00923C235.212 7.56615 234.954 7.12308 234.437 6.68C233.957 6.2 233.255 5.83077 232.332 5.57231C231.409 5.31385 230.302 5.20308 229.009 5.24C227.754 5.27692 226.332 5.55385 224.745 6.07077C224.671 6.07077 224.615 6.08923 224.578 6.12615C224.283 7.52923 223.951 8.91385 223.582 10.28C223.212 11.6462 222.825 13.0308 222.418 14.4338C222.935 14.36 223.452 14.3231 223.969 14.3231C224.486 14.2862 225.095 14.2492 225.797 14.2123C226.129 14.2123 226.462 14.1938 226.794 14.1569C227.163 14.12 227.495 14.0092 227.791 13.8246H227.957C228.068 13.8246 228.16 13.88 228.234 13.9908C228.455 14.8769 228.4 15.7631 228.068 16.6492C228.031 16.7231 227.975 16.7969 227.902 16.8708C227.754 17.0185 227.532 17.0923 227.237 17.0923C226.055 17.1662 225.003 17.2215 224.08 17.2585C223.194 17.2585 222.271 17.3323 221.311 17.48C220.905 18.6246 220.443 19.8615 219.926 21.1908C219.446 22.52 219.058 23.7015 218.763 24.7354C218.468 25.6954 218.302 26.4892 218.265 27.1169C218.154 27.8923 218.32 28.3908 218.763 28.6123C219.243 28.7969 219.871 28.8154 220.646 28.6677C221.422 28.52 222.289 28.28 223.249 27.9477C224.246 27.5785 225.225 27.2092 226.185 26.84C227.145 26.4708 228.012 26.1569 228.788 25.8985C229.6 25.64 230.209 25.5477 230.615 25.6215C231.095 25.7323 231.446 25.9723 231.668 26.3415C231.889 26.6738 232.018 27.0615 232.055 27.5046C232.092 27.9477 232.074 28.4092 232 28.8892C231.926 29.3323 231.852 29.72 231.778 30.0523L231.723 30.1077C231.649 30.1815 231.594 30.2185 231.557 30.2185C231.483 30.2185 231.446 30.2 231.446 30.1631C231.409 30.1262 231.391 30.0892 231.391 30.0523C231.169 29.6831 230.8 29.4985 230.283 29.4985C229.803 29.4985 229.175 29.5908 228.4 29.7754C227.662 29.9969 226.812 30.2554 225.852 30.5508C224.892 30.8831 223.84 31.16 222.695 31.3815ZM217.6 12.0523C217.6 12.2369 217.895 12.8277 218.486 13.8246C218.782 12.9015 219.04 11.9785 219.262 11.0554C219.52 10.1323 219.778 9.20923 220.037 8.28615C219.003 9.02462 218.338 9.72615 218.043 10.3908C217.785 11.0554 217.637 11.6092 217.6 12.0523ZM247.331 22.7415C247.072 23.6277 246.722 24.4769 246.279 25.2892C245.872 26.0646 245.319 26.7662 244.617 27.3938C243.915 27.9846 243.066 28.4462 242.069 28.7785C241.109 29.1108 239.965 29.2585 238.635 29.2215C237.602 29.1846 236.808 28.9815 236.254 28.6123C235.663 28.2062 235.275 27.7077 235.091 27.1169C234.869 26.4892 234.814 25.7692 234.925 24.9569C234.999 24.1446 235.183 23.2954 235.479 22.4092C235.515 22.3723 235.534 22.3169 235.534 22.2431L236.143 20.8031C236.217 20.6185 236.254 20.4892 236.254 20.4154C236.217 20.3415 236.235 20.2123 236.309 20.0277C236.346 19.9538 236.457 19.9169 236.642 19.9169L236.697 19.9723H236.919C236.992 20.0462 237.029 20.0831 237.029 20.0831H237.085C237.38 20.2677 237.86 20.5446 238.525 20.9138C239.189 21.2462 239.688 21.6523 240.02 22.1323V22.1877C240.057 22.1877 240.094 22.2431 240.131 22.3538C240.168 22.4646 240.149 22.5938 240.075 22.7415C240.075 22.8154 240.057 22.8708 240.02 22.9077L239.965 23.0185C239.817 23.24 239.743 23.3692 239.743 23.4062L239.522 23.6831C239.3 24.1631 239.097 24.6615 238.912 25.1785C238.765 25.6585 238.654 26.1015 238.58 26.5077C238.543 26.9138 238.562 27.2462 238.635 27.5046C238.746 27.7631 238.931 27.8923 239.189 27.8923C239.965 27.8923 240.629 27.7077 241.183 27.3385C241.774 26.9323 242.272 26.4338 242.679 25.8431C243.085 25.2523 243.417 24.6246 243.675 23.96C243.934 23.2954 244.137 22.6862 244.285 22.1323C244.506 21.2092 244.432 20.5446 244.063 20.1385C243.694 19.6954 243.159 19.4 242.457 19.2523C241.792 19.0677 240.999 18.9938 240.075 19.0308C239.152 19.0677 238.229 19.0862 237.306 19.0862C237.159 19.0862 237.085 19.0123 237.085 18.8646L237.195 18.8092C237.306 18.2185 237.343 17.6646 237.306 17.1477C237.306 16.6308 237.269 16.2062 237.195 15.8738C237.159 15.8 237.177 15.7262 237.251 15.6523C237.362 15.5785 237.417 15.5231 237.417 15.4862C238.451 14.5262 239.651 13.7877 241.017 13.2708C242.383 12.7169 243.805 12.3292 245.282 12.1077C246.02 12.1446 246.648 12.6062 247.165 13.4923C247.239 13.7508 247.275 14.0277 247.275 14.3231C247.275 14.5815 247.22 14.8585 247.109 15.1538C246.999 15.4492 246.777 15.7631 246.445 16.0954L246.223 16.2062C246.039 16.28 245.872 16.2985 245.725 16.2615C245.688 16.2615 245.669 16.1877 245.669 16.04C245.669 15.9662 245.688 15.8923 245.725 15.8185C245.725 15.7446 245.614 15.6154 245.392 15.4308C245.208 15.2462 244.894 15.0985 244.451 14.9877C244.045 14.8769 243.491 14.8769 242.789 14.9877C242.125 15.0985 241.312 15.4308 240.352 15.9846C241.017 15.9846 241.811 16.1138 242.734 16.3723C243.657 16.6308 244.506 17.0369 245.282 17.5908C246.057 18.1077 246.666 18.7908 247.109 19.64C247.552 20.4892 247.626 21.5231 247.331 22.7415ZM261.492 20.5815C262.009 20.9138 262.36 21.2462 262.544 21.5785C262.655 21.7631 262.729 21.9477 262.766 22.1323C262.729 22.2062 262.711 22.2985 262.711 22.4092V22.4646C262.194 24.4215 261.437 25.88 260.44 26.84C259.48 27.7631 258.464 28.4092 257.394 28.7785C256.471 29.0738 255.621 29.2215 254.846 29.2215C254.071 29.2215 253.461 29.1846 253.018 29.1108C252.021 28.9262 251.227 28.5938 250.637 28.1138C250.046 27.5969 249.603 27.0062 249.307 26.3415C249.049 25.64 248.901 24.92 248.864 24.1815C248.791 23.4062 248.791 22.6862 248.864 22.0215C248.938 21.2831 249.067 20.6 249.252 19.9723C249.437 19.3077 249.621 18.7354 249.806 18.2554C250.138 17.5169 250.507 16.7969 250.914 16.0954C251.357 15.3938 251.8 14.7846 252.243 14.2677C252.723 13.7138 253.221 13.2892 253.738 12.9938C254.255 12.6985 254.791 12.5692 255.344 12.6062C255.824 12.68 256.304 12.7908 256.784 12.9385C257.191 13.0862 257.634 13.3077 258.114 13.6031C258.631 13.8615 259.092 14.2492 259.498 14.7662C259.498 14.7662 259.517 14.8031 259.554 14.8769V14.9323C259.591 15.2646 259.535 15.5231 259.387 15.7077C259.24 15.8923 259.055 16.04 258.834 16.1508C258.649 16.2246 258.427 16.28 258.169 16.3169C257.947 16.3538 257.763 16.3723 257.615 16.3723C257.467 16.3723 257.394 16.3354 257.394 16.2615V16.0954C257.467 15.9477 257.523 15.7815 257.56 15.5969C257.597 15.4123 257.634 15.2646 257.671 15.1538C257.264 15.2277 256.914 15.3754 256.618 15.5969C255.991 16.0031 255.418 16.6123 254.901 17.4246C254.384 18.2 253.923 19.0862 253.517 20.0831C253 21.3385 252.649 22.4277 252.464 23.3508C252.317 24.2369 252.261 24.9938 252.298 25.6215C252.335 26.3231 252.464 26.9323 252.686 27.4492C254.347 27.7446 255.714 27.6892 256.784 27.2831C257.892 26.8769 258.76 26.3415 259.387 25.6769C260.015 24.9754 260.477 24.2554 260.772 23.5169C261.067 22.7415 261.252 22.1508 261.326 21.7446C261.363 21.56 261.381 21.4123 261.381 21.3015C261.381 21.1538 261.4 21.0246 261.437 20.9138C261.437 20.7662 261.455 20.6554 261.492 20.5815ZM274.729 22.4092C274.212 24.2923 273.455 25.6954 272.458 26.6185C271.498 27.5415 270.501 28.1877 269.467 28.5569C268.581 28.8523 267.732 29 266.919 29C266.144 29 265.553 28.9631 265.147 28.8892C264.15 28.7046 263.356 28.3723 262.766 27.8923C262.175 27.3754 261.732 26.7846 261.436 26.12C261.178 25.4554 261.03 24.7723 260.993 24.0708C260.919 23.3323 260.919 22.6308 260.993 21.9662C261.067 21.1908 261.196 20.4892 261.381 19.8615C261.566 19.1969 261.75 18.6615 261.935 18.2554C262.267 17.48 262.636 16.76 263.043 16.0954C263.449 15.3938 263.892 14.7846 264.372 14.2677C264.852 13.7508 265.332 13.3446 265.812 13.0492C266.329 12.7538 266.864 12.6246 267.418 12.6615C267.898 12.7354 268.378 12.8462 268.858 12.9938C269.264 13.1415 269.707 13.3446 270.187 13.6031C270.667 13.8615 271.11 14.2308 271.516 14.7108C271.553 14.7477 271.646 14.8769 271.793 15.0985C271.978 15.32 272.107 15.6338 272.181 16.04C272.255 16.4462 272.218 16.9262 272.07 17.48C271.959 18.0338 271.627 18.6431 271.073 19.3077C270.556 19.9723 269.763 20.7108 268.692 21.5231C267.658 22.2985 266.255 23.1108 264.483 23.96C264.409 24.5138 264.372 24.9938 264.372 25.4C264.409 25.8062 264.464 26.1569 264.538 26.4523C264.612 26.7846 264.686 27.0431 264.759 27.2277C264.907 27.4492 265.166 27.6154 265.535 27.7262C265.904 27.8 266.31 27.8185 266.753 27.7815C267.196 27.7446 267.621 27.6892 268.027 27.6154C268.47 27.5046 268.839 27.3938 269.135 27.2831C269.873 26.9877 270.483 26.5815 270.963 26.0646C271.479 25.5477 271.904 25.0123 272.236 24.4585C272.569 23.9046 272.809 23.3877 272.956 22.9077C273.141 22.3908 273.27 21.9846 273.344 21.6892C273.381 21.5046 273.418 21.3385 273.455 21.1908C273.492 21.0431 273.51 20.9138 273.51 20.8031V20.4708C274.027 20.7662 274.378 21.1169 274.563 21.5231C274.673 21.7077 274.747 21.8923 274.784 22.0769C274.784 22.2246 274.766 22.3169 274.729 22.3538V22.4092ZM265.59 19.9723C265.443 20.3415 265.313 20.6923 265.203 21.0246C265.092 21.3569 264.981 21.6708 264.87 21.9662C265.461 21.5969 266.163 21.1354 266.975 20.5815C267.824 19.9908 268.581 19.3815 269.246 18.7538C269.91 18.1262 270.372 17.48 270.63 16.8154C270.889 16.1508 270.778 15.56 270.298 15.0431V14.9877C270.003 15.0246 269.726 15.08 269.467 15.1538C269.209 15.2277 268.932 15.3754 268.636 15.5969C268.046 16.0031 267.492 16.5938 266.975 17.3692C266.458 18.1446 265.996 19.0123 265.59 19.9723ZM283.595 27.4492C284.555 27.0431 285.312 26.4338 285.866 25.6215C286.42 24.8092 286.844 23.9969 287.14 23.1846C287.472 22.2246 287.675 21.2462 287.749 20.2492C288.044 20.4338 288.266 20.6185 288.414 20.8031C288.598 20.9877 288.728 21.1723 288.801 21.3569C288.912 21.5415 288.986 21.7262 289.023 21.9108C288.801 23.2769 288.432 24.4031 287.915 25.2892C287.435 26.1754 286.937 26.8769 286.42 27.3938C285.792 28.0215 285.146 28.5015 284.481 28.8338C283.226 28.5385 282.192 28.1508 281.38 27.6708C280.568 27.1908 280.088 26.5815 279.94 25.8431C279.718 24.6615 279.737 23.24 279.995 21.5785C280.291 19.88 280.641 18.2738 281.048 16.76C280.198 17.7938 279.441 18.9938 278.777 20.36C278.149 21.6892 277.614 22.9815 277.171 24.2369C276.728 25.4554 276.395 26.5077 276.174 27.3938C275.952 28.28 275.823 28.7785 275.786 28.8892C275.786 29.0738 275.694 29.1662 275.509 29.1662C275.251 29.0923 274.863 29.0185 274.346 28.9446C273.866 28.8338 273.331 28.6308 272.74 28.3354C272.629 28.2985 272.574 28.2246 272.574 28.1138V28.0031C272.5 27.1908 272.518 26.2123 272.629 25.0677C272.703 23.9231 272.851 22.7231 273.072 21.4677C273.294 20.1754 273.552 18.8646 273.848 17.5354C274.143 16.1692 274.438 14.8769 274.734 13.6585C274.771 13.4738 274.752 13.3446 274.678 13.2708C274.641 13.1969 274.641 13.0677 274.678 12.8831C274.715 12.7723 274.826 12.7169 275.011 12.7169H275.066H275.232H275.288C275.324 12.7538 275.361 12.7723 275.398 12.7723H275.454C275.786 12.8831 276.229 13.0677 276.783 13.3262C277.374 13.5477 277.891 13.8615 278.334 14.2677L278.389 14.3231C278.426 14.3231 278.481 14.3785 278.555 14.4892C278.629 14.5631 278.648 14.6923 278.611 14.8769C278.611 14.9508 278.592 15.0062 278.555 15.0431V15.1538C278.481 15.3754 278.444 15.5046 278.444 15.5415C278.223 16.28 278.001 17.0554 277.78 17.8677C277.595 18.68 277.411 19.4923 277.226 20.3046C278.075 18.5323 278.943 17.0369 279.829 15.8185C280.752 14.6 281.472 13.6954 281.989 13.1046L282.044 13.0492L282.377 12.7169C282.524 12.5692 282.691 12.4954 282.875 12.4954C282.986 12.4954 283.097 12.5138 283.208 12.5508C283.577 12.6985 283.983 12.8831 284.426 13.1046C284.906 13.3262 285.331 13.6031 285.7 13.9354C285.774 13.9723 285.848 14.0462 285.921 14.1569C285.995 14.2677 285.995 14.4523 285.921 14.7108V14.7662V14.8215C285.183 16.7785 284.648 18.5508 284.315 20.1385C283.983 21.6892 283.761 23 283.651 24.0708C283.503 25.3631 283.484 26.4892 283.595 27.4492ZM300.885 22.4092C300.368 24.2923 299.611 25.6954 298.614 26.6185C297.654 27.5415 296.657 28.1877 295.623 28.5569C294.737 28.8523 293.888 29 293.076 29C292.3 29 291.71 28.9631 291.303 28.8892C290.306 28.7046 289.513 28.3723 288.922 27.8923C288.331 27.3754 287.888 26.7846 287.593 26.12C287.334 25.4554 287.186 24.7723 287.15 24.0708C287.076 23.3323 287.076 22.6308 287.15 21.9662C287.223 21.1908 287.353 20.4892 287.537 19.8615C287.722 19.1969 287.906 18.6615 288.091 18.2554C288.423 17.48 288.793 16.76 289.199 16.0954C289.605 15.3938 290.048 14.7846 290.528 14.2677C291.008 13.7508 291.488 13.3446 291.968 13.0492C292.485 12.7538 293.02 12.6246 293.574 12.6615C294.054 12.7354 294.534 12.8462 295.014 12.9938C295.42 13.1415 295.863 13.3446 296.343 13.6031C296.823 13.8615 297.266 14.2308 297.673 14.7108C297.71 14.7477 297.802 14.8769 297.95 15.0985C298.134 15.32 298.263 15.6338 298.337 16.04C298.411 16.4462 298.374 16.9262 298.226 17.48C298.116 18.0338 297.783 18.6431 297.23 19.3077C296.713 19.9723 295.919 20.7108 294.848 21.5231C293.814 22.2985 292.411 23.1108 290.639 23.96C290.565 24.5138 290.528 24.9938 290.528 25.4C290.565 25.8062 290.62 26.1569 290.694 26.4523C290.768 26.7846 290.842 27.0431 290.916 27.2277C291.063 27.4492 291.322 27.6154 291.691 27.7262C292.06 27.8 292.466 27.8185 292.91 27.7815C293.353 27.7446 293.777 27.6892 294.183 27.6154C294.626 27.5046 294.996 27.3938 295.291 27.2831C296.03 26.9877 296.639 26.5815 297.119 26.0646C297.636 25.5477 298.06 25.0123 298.393 24.4585C298.725 23.9046 298.965 23.3877 299.113 22.9077C299.297 22.3908 299.426 21.9846 299.5 21.6892C299.537 21.5046 299.574 21.3385 299.611 21.1908C299.648 21.0431 299.666 20.9138 299.666 20.8031V20.4708C300.183 20.7662 300.534 21.1169 300.719 21.5231C300.83 21.7077 300.903 21.8923 300.94 22.0769C300.94 22.2246 300.922 22.3169 300.885 22.3538V22.4092ZM291.746 19.9723C291.599 20.3415 291.47 20.6923 291.359 21.0246C291.248 21.3569 291.137 21.6708 291.026 21.9662C291.617 21.5969 292.319 21.1354 293.131 20.5815C293.98 19.9908 294.737 19.3815 295.402 18.7538C296.066 18.1262 296.528 17.48 296.786 16.8154C297.045 16.1508 296.934 15.56 296.454 15.0431V14.9877C296.159 15.0246 295.882 15.08 295.623 15.1538C295.365 15.2277 295.088 15.3754 294.793 15.5969C294.202 16.0031 293.648 16.5938 293.131 17.3692C292.614 18.1446 292.153 19.0123 291.746 19.9723Z" fill="#FFC500"/>
</svg>
