<svg width="264" height="80" viewBox="0 0 264 80" fill="none" xmlns="http://www.w3.org/2000/svg">
<rect x="8.5" y="8.5" width="255" height="71" stroke="#FFD600"/>
<rect x="0.5" y="0.5" width="255" height="71" stroke="white"/>
<path d="M48.6 46.1C46.32 46.1 44.42 44.48 43.96 42.32C43.9 42 43.86 41.68 43.86 41.34C43.86 41.02 43.9 40.7 43.96 40.4C44.38 38.24 46.32 36.6 48.6 36.6C50.58 36.6 52.26 37.78 52.98 39.48H55.02C54.22 36.7 51.64 34.68 48.6 34.68C45.24 34.68 42.46 37.16 42 40.4C41.96 40.72 41.94 41.02 41.94 41.34C41.94 41.68 41.96 42 42.02 42.32C42.48 45.54 45.26 48 48.6 48C51.58 48 54.08 46.08 54.96 43.4H52.88C52.12 45 50.5 46.1 48.6 46.1ZM65.1005 41.14L64.8605 40.78C64.8805 40.76 64.9005 40.76 64.9005 40.74C64.9205 40.74 64.9205 40.74 64.9205 40.74C64.9605 40.72 65.0005 40.7 65.0205 40.66H65.0405C65.0605 40.64 65.1005 40.62 65.1405 40.6C65.2205 40.54 65.3005 40.48 65.3605 40.42C65.3805 40.42 65.4005 40.4 65.4205 40.38C65.4605 40.36 65.4805 40.34 65.5005 40.32C65.5405 40.28 65.5805 40.24 65.6205 40.22L65.6405 40.2C65.6605 40.18 65.7005 40.16 65.7205 40.12C65.8205 40.06 65.9005 39.98 65.9805 39.88C66.8805 39 67.5205 37.88 67.8005 36.6C67.9005 36.14 67.9605 35.66 67.9605 35.16C67.9605 35 67.9605 34.84 67.9405 34.68H56.9205V48H58.8405V41.8H61.3005C61.3605 41.8 61.4005 41.8 61.4405 41.8C61.4605 41.8 61.5005 41.8 61.5205 41.8C61.5605 41.8 61.6005 41.8 61.6205 41.8C61.6405 41.8 61.6405 41.8 61.6605 41.8C61.7005 41.8 61.7605 41.8 61.8205 41.78C61.8805 41.78 61.9205 41.78 61.9805 41.78C62.0205 41.76 62.0805 41.76 62.1205 41.76C62.1405 41.76 62.1605 41.76 62.1805 41.74C62.2205 41.74 62.2605 41.74 62.3005 41.74C62.3205 41.72 62.3405 41.72 62.3605 41.72C62.3805 41.72 62.4205 41.72 62.4605 41.7C62.5605 41.68 62.6805 41.66 62.8005 41.64C62.8405 41.62 62.9005 41.62 62.9405 41.6C62.9605 41.6 62.9605 41.6 62.9805 41.6C63.0205 41.58 63.0405 41.58 63.0805 41.56C63.1005 41.56 63.1005 41.56 63.1005 41.56L63.2205 41.74L67.0405 48H69.2805L65.1005 41.14ZM63.1805 39.5C62.6005 39.76 61.9605 39.88 61.3005 39.88H58.8405V36.6H65.8205C65.5805 37.32 65.1805 37.98 64.6405 38.52C64.2005 38.94 63.7205 39.28 63.1805 39.5ZM72.2441 41.84H80.7841V39.92H72.2441V37.6H70.3241V48H82.0841V46.1H72.2441V41.84ZM70.3241 34.72V36.64H82.0841V34.72H70.3241ZM84.0011 48H86.5411L90.7611 40.4L89.5011 38.1L84.0011 48ZM92.6611 36.96L91.3811 34.68L90.1211 36.96L91.3811 39.24L96.2411 48H98.7611L92.6611 36.96ZM108.206 41.14L107.966 40.78C107.986 40.76 108.006 40.76 108.006 40.74C108.026 40.74 108.026 40.74 108.026 40.74C108.066 40.72 108.106 40.7 108.126 40.66H108.146C108.166 40.64 108.206 40.62 108.246 40.6C108.326 40.54 108.406 40.48 108.466 40.42C108.486 40.42 108.506 40.4 108.526 40.38C108.566 40.36 108.586 40.34 108.606 40.32C108.646 40.28 108.686 40.24 108.726 40.22L108.746 40.2C108.766 40.18 108.806 40.16 108.826 40.12C108.926 40.06 109.006 39.98 109.086 39.88C109.986 39 110.626 37.88 110.906 36.6C111.006 36.14 111.066 35.66 111.066 35.16C111.066 35 111.066 34.84 111.046 34.68H100.026V48H101.946V41.8H104.406C104.466 41.8 104.506 41.8 104.546 41.8C104.566 41.8 104.606 41.8 104.626 41.8C104.666 41.8 104.706 41.8 104.726 41.8C104.746 41.8 104.746 41.8 104.766 41.8C104.806 41.8 104.866 41.8 104.926 41.78C104.986 41.78 105.026 41.78 105.086 41.78C105.126 41.76 105.186 41.76 105.226 41.76C105.246 41.76 105.266 41.76 105.286 41.74C105.326 41.74 105.366 41.74 105.406 41.74C105.426 41.72 105.446 41.72 105.466 41.72C105.486 41.72 105.526 41.72 105.566 41.7C105.666 41.68 105.786 41.66 105.906 41.64C105.946 41.62 106.006 41.62 106.046 41.6C106.066 41.6 106.066 41.6 106.086 41.6C106.126 41.58 106.146 41.58 106.186 41.56C106.206 41.56 106.206 41.56 106.206 41.56L106.326 41.74L110.146 48H112.386L108.206 41.14ZM106.286 39.5C105.706 39.76 105.066 39.88 104.406 39.88H101.946V36.6H108.926C108.686 37.32 108.286 37.98 107.746 38.52C107.306 38.94 106.826 39.28 106.286 39.5ZM132.974 34.72V42.06C132.974 44.22 131.274 46.02 129.094 46.1C129.054 46.1 129.014 46.1 128.954 46.1C128.914 46.1 128.874 46.1 128.814 46.1C126.654 46.02 124.954 44.22 124.954 42.06V34.72H123.034V43.16C123.034 44.16 123.394 45.14 124.074 45.88C124.354 46.16 124.634 46.42 124.954 46.66C126.074 47.5 127.454 48 128.954 48C130.474 48 131.854 47.52 132.974 46.66C133.274 46.44 133.574 46.18 133.834 45.88C134.514 45.16 134.874 44.18 134.874 43.18V34.72H132.974ZM136.803 48H138.723V40.68L136.803 38.76V48ZM145.443 34.72V43.32L136.803 34.7V37.4L138.723 39.32L145.443 46.04L147.343 47.94V34.72H145.443ZM157.995 48H159.915V40.66L157.995 38.74V48ZM163.975 40.64L157.995 34.68V37.38L159.915 39.3L163.975 43.36L164.695 42.62L165.315 42L167.935 39.4V48H169.855V34.76L163.975 40.64ZM181.704 34.72V42.06C181.704 44.22 180.004 46.02 177.824 46.1C177.784 46.1 177.744 46.1 177.684 46.1C177.644 46.1 177.604 46.1 177.544 46.1C175.384 46.02 173.684 44.22 173.684 42.06V34.72H171.764V43.16C171.764 44.16 172.124 45.14 172.804 45.88C173.084 46.16 173.364 46.42 173.684 46.66C174.804 47.5 176.184 48 177.684 48C179.204 48 180.584 47.52 181.704 46.66C182.004 46.44 182.304 46.18 182.564 45.88C183.244 45.16 183.604 44.18 183.604 43.18V34.72H181.704ZM185.534 48H187.454V40.68L185.534 38.76V48ZM194.174 34.72V43.32L185.534 34.7V37.4L187.454 39.32L194.174 46.04L196.074 47.94V34.72H194.174ZM209.895 40.46C209.435 37.24 206.695 34.76 203.375 34.72H197.995V36.64H203.495C204.495 36.7 205.415 37.04 206.155 37.6C207.075 38.3 207.715 39.3 207.955 40.46C208.015 40.76 208.055 41.08 208.055 41.4C208.055 41.72 208.015 42.06 207.935 42.38C207.535 44.3 205.955 45.8 203.975 46.1H199.915V37.6H197.995V48H204.115C207.095 47.64 209.455 45.32 209.895 42.38C209.935 42.06 209.955 41.72 209.955 41.4C209.955 41.08 209.935 40.76 209.895 40.46ZM218.541 36.62C221.141 36.62 223.261 38.76 223.261 41.36C223.261 43.98 221.141 46.1 218.541 46.1C215.921 46.1 213.801 43.98 213.801 41.36C213.801 38.76 215.921 36.62 218.541 36.62ZM211.881 41.36C211.881 45.04 214.861 48 218.541 48C222.201 48 225.181 45.04 225.181 41.36C225.181 37.68 222.201 34.72 218.541 34.72C214.861 34.72 211.881 37.68 211.881 41.36Z" fill="white"/>
</svg>
