<svg width="264" height="80" viewBox="0 0 264 80" fill="none" xmlns="http://www.w3.org/2000/svg">
<rect x="8.5" y="8.5" width="255" height="71" stroke="white"/>
<rect x="4" y="4" width="256" height="72" fill="url(#paint0_linear_89_116)"/>
<rect x="0.5" y="0.5" width="255" height="71" stroke="#6E4FC0"/>
<path d="M61.48 31.68H58.94L64.42 41.58L65.68 39.3L61.48 31.68ZM71.18 31.68L66.32 40.44L65.06 42.72L66.32 45L67.58 42.72L73.7 31.68H71.18ZM77.2909 38.84H85.8309V36.92H77.2909V34.6H75.3709V45H87.1309V43.1H77.2909V38.84ZM75.3709 31.72V33.64H87.1309V31.72H75.3709ZM97.2372 38.14L96.9972 37.78C97.0172 37.76 97.0372 37.76 97.0372 37.74C97.0572 37.74 97.0572 37.74 97.0572 37.74C97.0972 37.72 97.1372 37.7 97.1572 37.66H97.1772C97.1972 37.64 97.2372 37.62 97.2772 37.6C97.3572 37.54 97.4372 37.48 97.4972 37.42C97.5172 37.42 97.5372 37.4 97.5572 37.38C97.5972 37.36 97.6172 37.34 97.6372 37.32C97.6772 37.28 97.7172 37.24 97.7572 37.22L97.7772 37.2C97.7972 37.18 97.8372 37.16 97.8572 37.12C97.9572 37.06 98.0372 36.98 98.1172 36.88C99.0172 36 99.6572 34.88 99.9372 33.6C100.037 33.14 100.097 32.66 100.097 32.16C100.097 32 100.097 31.84 100.077 31.68H89.0572V45H90.9772V38.8H93.4372C93.4972 38.8 93.5372 38.8 93.5772 38.8C93.5972 38.8 93.6372 38.8 93.6572 38.8C93.6972 38.8 93.7372 38.8 93.7572 38.8C93.7772 38.8 93.7772 38.8 93.7972 38.8C93.8372 38.8 93.8972 38.8 93.9572 38.78C94.0172 38.78 94.0572 38.78 94.1172 38.78C94.1572 38.76 94.2172 38.76 94.2572 38.76C94.2772 38.76 94.2972 38.76 94.3172 38.74C94.3572 38.74 94.3972 38.74 94.4372 38.74C94.4572 38.72 94.4772 38.72 94.4972 38.72C94.5172 38.72 94.5572 38.72 94.5972 38.7C94.6972 38.68 94.8172 38.66 94.9372 38.64C94.9772 38.62 95.0372 38.62 95.0772 38.6C95.0972 38.6 95.0972 38.6 95.1172 38.6C95.1572 38.58 95.1772 38.58 95.2172 38.56C95.2372 38.56 95.2372 38.56 95.2372 38.56L95.3572 38.74L99.1772 45H101.417L97.2372 38.14ZM95.3172 36.5C94.7372 36.76 94.0972 36.88 93.4372 36.88H90.9772V33.6H97.9572C97.7172 34.32 97.3172 34.98 96.7772 35.52C96.3372 35.94 95.8572 36.28 95.3172 36.5ZM112.065 45H113.985V37.66L112.065 35.74V45ZM118.045 37.64L112.065 31.68V34.38L113.985 36.3L118.045 40.36L118.765 39.62L119.385 39L122.005 36.4V45H123.925V31.76L118.045 37.64ZM135.775 31.72V39.06C135.775 41.22 134.075 43.02 131.895 43.1C131.855 43.1 131.815 43.1 131.755 43.1C131.715 43.1 131.675 43.1 131.615 43.1C129.455 43.02 127.755 41.22 127.755 39.06V31.72H125.835V40.16C125.835 41.16 126.195 42.14 126.875 42.88C127.155 43.16 127.435 43.42 127.755 43.66C128.875 44.5 130.255 45 131.755 45C133.275 45 134.655 44.52 135.775 43.66C136.075 43.44 136.375 43.18 136.635 42.88C137.315 42.16 137.675 41.18 137.675 40.18V31.72H135.775ZM139.604 45H141.524V37.68L139.604 35.76V45ZM148.244 31.72V40.32L139.604 31.7V34.4L141.524 36.32L148.244 43.04L150.144 44.94V31.72H148.244ZM163.965 37.46C163.505 34.24 160.765 31.76 157.445 31.72H152.065V33.64H157.565C158.565 33.7 159.485 34.04 160.225 34.6C161.145 35.3 161.785 36.3 162.025 37.46C162.085 37.76 162.125 38.08 162.125 38.4C162.125 38.72 162.085 39.06 162.005 39.38C161.605 41.3 160.025 42.8 158.045 43.1H153.985V34.6H152.065V45H158.185C161.165 44.64 163.525 42.32 163.965 39.38C164.005 39.06 164.025 38.72 164.025 38.4C164.025 38.08 164.005 37.76 163.965 37.46ZM172.612 33.62C175.212 33.62 177.332 35.76 177.332 38.36C177.332 40.98 175.212 43.1 172.612 43.1C169.992 43.1 167.872 40.98 167.872 38.36C167.872 35.76 169.992 33.62 172.612 33.62ZM165.952 38.36C165.952 42.04 168.932 45 172.612 45C176.272 45 179.252 42.04 179.252 38.36C179.252 34.68 176.272 31.72 172.612 31.72C168.932 31.72 165.952 34.68 165.952 38.36ZM188.423 37.4H184.623C184.523 37.4 184.403 37.4 184.303 37.4C184.223 37.4 184.163 37.4 184.103 37.4C183.143 37.3 182.403 36.5 182.403 35.52C182.403 34.48 183.243 33.64 184.283 33.64H188.503C189.483 33.68 190.263 34.44 190.323 35.42H192.243C192.223 34.78 192.043 34.16 191.743 33.64C191.743 33.64 191.743 33.64 191.723 33.64C191.083 32.52 189.903 31.76 188.523 31.72C188.483 31.72 188.463 31.72 188.423 31.72C188.403 31.72 188.363 31.72 188.323 31.72H184.283C182.883 31.72 181.643 32.5 180.983 33.64C180.663 34.2 180.483 34.84 180.483 35.52C180.483 36.2 180.663 36.86 180.983 37.4C181.143 37.68 181.343 37.94 181.563 38.16C182.243 38.88 183.223 39.32 184.283 39.32H188.423C189.463 39.32 190.323 40.16 190.323 41.2C190.323 42.24 189.463 43.1 188.423 43.1H184.303C183.283 43.1 182.463 42.3 182.403 41.3H180.483C180.503 41.96 180.683 42.56 180.983 43.1C181.643 44.24 182.883 45 184.303 45H188.423C189.843 45 191.083 44.24 191.743 43.1C192.043 42.54 192.243 41.9 192.243 41.2C192.243 40.52 192.043 39.88 191.743 39.32C191.083 38.18 189.843 37.4 188.423 37.4Z" fill="#322B80"/>
<defs>
<linearGradient id="paint0_linear_89_116" x1="45" y1="4" x2="143" y2="99.5" gradientUnits="userSpaceOnUse">
<stop stop-color="#FFF4BC"/>
<stop offset="1" stop-color="#FFD600"/>
</linearGradient>
</defs>
</svg>
